<svg xmlns="http://www.w3.org/2000/svg" version="1.1" xmlns:xlink="http://www.w3.org/1999/xlink" xmlns:svgjs="http://svgjs.dev/svgjs" viewBox="0 0 8.970036833624306 7.519037982367357"><g transform="matrix(0.8454886022698896,0,0,0.8454886022698896,1.2738749985476172,5.189966469341753)"><rect width="10.344126401623612" height="10.344126401623612" x="-1.374089567999305" y="-6.863922173620833" fill="#000000"></rect><g transform="matrix(1,0,0,1,0,0)" clip-path="url(#SvgjsClipPath2438)"><g clip-path="url(#SvgjsClipPath2433845958ff-6992-49b3-a7af-d81399f95285)"><path d=" M 0.9750052906847007 -1.7279253832265673 C 1.1107418300313905 -1.8843791172476054 1.2224997916422964 -1.9872053366107156 1.3026260436743904 -2.0673315886428094 C 1.303478450610902 -2.067757792111065 1.3038861234935815 -2.068183995579321 1.3038861234935815 -2.068183995579321 L 2.272387178640987 -2.971568573011468 C 2.485970707993881 -3.170772367957122 2.497811752177162 -3.5053050293667867 2.298607957231508 -3.71888855871968 C 2.09983036575411 -3.9320458846043183 1.7652977043444453 -3.9438869287875997 1.5517141749915515 -3.7446831338419457 L 0.18271157378271152 -2.4682778687580758 L 0.16833183937547172 -2.4551582141700274 C 0.12054145917409112 -2.41074040054354 0.08290583986854477 -2.3591512502990106 0.055406450873256345 -2.3041710028940092 C 0.05244155718104197 -2.2982412155095804 0.049902866957083396 -2.292756162178984 0.04736417673312481 -2.286826374794556 C 0.022829681430050763 -2.2326985343260666 0.007597540086299365 -2.1751795966971077 0.0021124867557027497 -2.1168082521316367 C 0.0008338763509352987 -2.1007422344369497 0 -2.0846576861566875 0 -2.0685916684620005 L 0 -2.068165464993745 C 0 -2.052099447299058 0.000852406936511634 -2.0360148990187947 0.0021124867557027497 -2.019948881324108 C 0.007597540086299365 -1.9615775367586377 0.02240347796179496 -1.9040585991296783 0.04736417673312481 -1.8499307586611895 C 0.049902866957083396 -1.8440009712767607 0.052441557181041945 -1.838515917946164 0.055406450873256345 -1.8325861305617352 C 0.07740225595237182 -1.7881868475208251 0.10658792823510717 -1.745881520650041 0.14211106078495078 -1.7078196978762392 C 0.15521218478742307 -1.6938661669372554 0.16875804284372756 -1.6807465123492067 0.18271157378271152 -1.6684792646976696 L 0.8822411792895432 -1.0159061630412833 C 0.7359051449931868 -1.3208454792855329 0.8199969423386173 -1.549272007685075 0.9750052906847009 -1.7279068526409915 Z" fill="#ba8437" transform="matrix(1,0,0,1,0,0)" fill-rule="nonzero"></path></g><g clip-path="url(#SvgjsClipPath2433845958ff-6992-49b3-a7af-d81399f95285)"><path d=" M 1.3719860254866305 -2.0051614740341885 C 1.336462892936787 -1.9789406954436672 1.2861338225114478 -1.9391925893824187 1.2315797785747031 -1.8875849085523115 C 1.0619878593800403 -1.7289816266044182 0.8539264445288958 -1.5417115287699272 0.8928036130680568 -1.2245049648741402 C 0.9083878355377585 -1.0973851478204488 0.9786558160432396 -0.9258475171402698 0.9786558160432396 -0.9258475171402698 L 1.5517327055771277 -0.39168485731669556 C 1.6536509262469972 -0.2969565038504456 1.7826423324438994 -0.25 1.912059942109057 -0.25 C 2.053318595957496 -0.25 2.1945772498059353 -0.3062403272241916 2.2986264878170846 -0.41790563590721685 C 2.497830282762738 -0.6314891652601107 2.485989238579457 -0.966021826669774 2.2724057092265633 -1.1652256216154284 L 1.3719860254866305 -2.0051614740341877 Z" fill="#cf9645" transform="matrix(1,0,0,1,0,0)" fill-rule="nonzero"></path></g><g clip-path="url(#SvgjsClipPath2433845958ff-6992-49b3-a7af-d81399f95285)"><path d=" M 4.3961219997885745 -2.605515385536449 C 4.260385460441885 -2.761969119557487 4.148627498830979 -2.8647953389205973 4.068501246798885 -2.944921590952691 C 4.067648839862373 -2.9453477944209467 4.067241166979693 -2.9457739978892032 4.067241166979693 -2.9457739978892032 L 3.098740111832288 -3.8491585753213498 C 2.8851565824793943 -4.048362370267004 2.8733155382961133 -4.382895031676668 3.072519333241767 -4.596478561029562 C 3.2712969247191652 -4.8096358869142 3.60582958612883 -4.821476931097481 3.8194131154817232 -4.622273136151827 L 5.18843424727614 -3.3458678710679584 L 5.20281398168338 -3.3327482164799096 C 5.25060436188476 -3.288330402853423 5.288239981190307 -3.2367412526088923 5.315739370185596 -3.1817610052038923 C 5.31870426387781 -3.175831217819463 5.321242954101767 -3.1703461644888664 5.323781644325727 -3.164416377104438 C 5.348316139628801 -3.110288536635949 5.3635482809725525 -3.0527695990069903 5.3690333343031496 -2.9943982544415193 C 5.370311944707917 -2.9783322367468323 5.371145821058851 -2.9622476884665696 5.371145821058851 -2.9461816707718826 L 5.371145821058851 -2.945755467303627 C 5.371145821058851 -2.92968944960894 5.37029341412234 -2.9136049013286773 5.3690333343031496 -2.8975388836339904 C 5.3635482809725525 -2.8391675390685203 5.348742343097057 -2.781648601439561 5.323781644325727 -2.727520760971072 C 5.321242954101768 -2.7215909735866433 5.31870426387781 -2.7161059202560467 5.315739370185596 -2.710176132871618 C 5.29374356510648 -2.6657768498307077 5.264557892823745 -2.6234715229599237 5.229034760273901 -2.5854097001861214 C 5.215933636271428 -2.571456169247137 5.202387778215124 -2.5583365146590884 5.18843424727614 -2.5460692670075518 L 4.488904641769309 -1.893496165351165 C 4.635240676065664 -2.1984354815954146 4.551148878720236 -2.4268620099949567 4.396140530374152 -2.6054968549508737 Z" fill="#cf9645" transform="matrix(1,0,0,1,0,0)" fill-rule="nonzero"></path></g><g clip-path="url(#SvgjsClipPath2433845958ff-6992-49b3-a7af-d81399f95285)"><path d=" M 3.9991412649866445 -2.8827329457584945 C 4.034664397536488 -2.856512167167973 4.084993467961827 -2.8167640611067246 4.139547511898572 -2.765156380276618 C 4.309139431093235 -2.6065530983287246 4.517200845944379 -2.4192830004942327 4.478323677405219 -2.1020764365984466 C 4.462739454935517 -1.9749566195447548 4.392471474430035 -1.8034189888645762 4.392471474430035 -1.8034189888645762 L 3.819394584896148 -1.2692563290410024 C 3.717476364226278 -1.1745279755747529 3.588484958029376 -1.1275714717243073 3.459067348364218 -1.1275714717243073 C 3.3178086945157785 -1.1275714717243073 3.1765500406673395 -1.1838117989484989 3.0725008026561915 -1.2954771076315232 C 2.873297007710537 -1.509060636984417 2.885138051893819 -1.8435932983940817 3.098721581246713 -2.0427970933397357 L 3.9991412649866445 -2.882732945758495 Z" fill="#ba8437" transform="matrix(1,0,0,1,0,0)" fill-rule="nonzero"></path></g></g><g><path d=" M 0.781494140625 0.561767578125 Q 0.775634765625 0.61669921875 0.752197265625 0.6580810546875 Q 0.728759765625 0.699462890625 0.69580078125 0.73095703125 Q 0.662841796875 0.762451171875 0.6251220703125 0.7840576171875 Q 0.58740234375 0.8056640625 0.5537109375 0.821044921875 Q 0.6181640625 0.890625 0.6697998046875 0.94482421875 Q 0.721435546875 0.9990234375 0.76171875 1.040771484375 Q 0.802001953125 1.08251953125 0.8316650390625 1.1129150390625 Q 0.861328125 1.143310546875 0.882568359375 1.163818359375 Q 0.932373046875 1.212890625 0.9521484375 1.22900390625 Q 0.97265625 1.2451171875 0.996826171875 1.2513427734375 Q 1.02099609375 1.257568359375 1.043701171875 1.257568359375 Q 1.062744140625 1.257568359375 1.080322265625 1.25390625 Q 1.097900390625 1.250244140625 1.108154296875 1.245849609375 Q 1.072998046875 1.269287109375 1.0462646484375 1.288330078125 Q 1.01953125 1.307373046875 0.9971923828125 1.3209228515625 Q 0.974853515625 1.33447265625 0.9547119140625 1.341796875 Q 0.9345703125 1.34912109375 0.913330078125 1.34912109375 Q 0.898681640625 1.34912109375 0.8843994140625 1.3447265625 Q 0.8701171875 1.34033203125 0.8543701171875 1.330810546875 Q 0.838623046875 1.3212890625 0.8206787109375 1.306640625 Q 0.802734375 1.2919921875 0.781494140625 1.271484375 Q 0.767578125 1.257568359375 0.73974609375 1.2264404296875 Q 0.7119140625 1.1953125 0.677490234375 1.1568603515625 Q 0.64306640625 1.118408203125 0.605712890625 1.07666015625 Q 0.568359375 1.034912109375 0.535400390625 0.9993896484375 Q 0.50244140625 0.9638671875 0.4771728515625 0.938232421875 Q 0.451904296875 0.91259765625 0.4423828125 0.90673828125 Q 0.431396484375 0.900146484375 0.4189453125 0.89501953125 Q 0.40869140625 0.890625 0.3951416015625 0.8873291015625 Q 0.381591796875 0.884033203125 0.369140625 0.885498046875 L 0.475341796875 0.812255859375 Q 0.511962890625 0.812255859375 0.5452880859375 0.79541015625 Q 0.57861328125 0.778564453125 0.6031494140625 0.7459716796875 Q 0.627685546875 0.71337890625 0.6416015625 0.66650390625 Q 0.655517578125 0.61962890625 0.652587890625 0.560302734375 Q 0.651123046875 0.525146484375 0.6368408203125 0.4962158203125 Q 0.62255859375 0.46728515625 0.6002197265625 0.444580078125 Q 0.577880859375 0.421875 0.54931640625 0.405029296875 Q 0.520751953125 0.38818359375 0.49072265625 0.3768310546875 Q 0.460693359375 0.365478515625 0.4310302734375 0.3599853515625 Q 0.4013671875 0.3544921875 0.37646484375 0.3544921875 Q 0.359619140625 0.3544921875 0.33984375 0.355224609375 Q 0.320068359375 0.35595703125 0.30029296875 0.35595703125 Q 0.298095703125 0.492919921875 0.2955322265625 0.6005859375 Q 0.29296875 0.708251953125 0.290771484375 0.791748046875 Q 0.28857421875 0.875244140625 0.2867431640625 0.9356689453125 Q 0.284912109375 0.99609375 0.28271484375 1.03857421875 Q 0.2783203125 1.13818359375 0.274658203125 1.17333984375 Q 0.2724609375 1.18798828125 0.267333984375 1.203369140625 Q 0.262939453125 1.216552734375 0.2552490234375 1.23193359375 Q 0.24755859375 1.247314453125 0.23583984375 1.261962890625 Q 0.267333984375 1.265625 0.2926025390625 1.2659912109375 Q 0.31787109375 1.266357421875 0.339111328125 1.266357421875 Q 0.3896484375 1.266357421875 0.4134521484375 1.263427734375 Q 0.437255859375 1.260498046875 0.44091796875 1.259033203125 Q 0.40283203125 1.278076171875 0.369140625 1.294189453125 Q 0.33544921875 1.310302734375 0.3046875 1.32275390625 Q 0.27392578125 1.335205078125 0.2457275390625 1.3421630859375 Q 0.217529296875 1.34912109375 0.1904296875 1.34912109375 L 0.06298828125 1.34912109375 L 0.12744140625 1.305908203125 Q 0.132568359375 1.286865234375 0.1373291015625 1.260498046875 Q 0.14208984375 1.234130859375 0.145751953125 1.2037353515625 Q 0.1494140625 1.17333984375 0.1519775390625 1.1407470703125 Q 0.154541015625 1.108154296875 0.15673828125 1.07666015625 Q 0.1611328125 1.004150390625 0.163330078125 0.9228515625 Q 0.164794921875 0.810791015625 0.166259765625 0.7060546875 Q 0.1669921875 0.661376953125 0.167724609375 0.6141357421875 Q 0.16845703125 0.56689453125 0.1688232421875 0.5218505859375 Q 0.169189453125 0.476806640625 0.169921875 0.4361572265625 Q 0.170654296875 0.3955078125 0.170654296875 0.364013671875 L 0.038818359375 0.374267578125 L 0.181640625 0.28857421875 Q 0.194091796875 0.290771484375 0.2091064453125 0.2911376953125 Q 0.22412109375 0.29150390625 0.240234375 0.29150390625 Q 0.271728515625 0.29150390625 0.302490234375 0.2889404296875 Q 0.333251953125 0.286376953125 0.3636474609375 0.2830810546875 Q 0.39404296875 0.27978515625 0.42333984375 0.27685546875 Q 0.45263671875 0.27392578125 0.482666015625 0.27392578125 Q 0.541259765625 0.27392578125 0.59765625 0.293701171875 Q 0.654052734375 0.3134765625 0.6968994140625 0.350830078125 Q 0.73974609375 0.38818359375 0.763916015625 0.441650390625 Q 0.7880859375 0.4951171875 0.781494140625 0.561767578125 M 1.1103515625 1.244384765625 Q 1.10888671875 1.2451171875 1.10888671875 1.2451171875 L 1.108154296875 1.2451171875 L 1.108154296875 1.245849609375 L 1.108154296875 1.2451171875 L 1.10888671875 1.2451171875 Q 1.109619140625 1.244384765625 1.1103515625 1.244384765625 M 1.87353515625 1.15869140625 Q 1.83837890625 1.189453125 1.815673828125 1.2103271484375 Q 1.79296875 1.231201171875 1.7783203125 1.24365234375 Q 1.761474609375 1.25830078125 1.751953125 1.267822265625 Q 1.740966796875 1.27880859375 1.7222900390625 1.2952880859375 Q 1.70361328125 1.311767578125 1.6820068359375 1.3271484375 Q 1.660400390625 1.342529296875 1.6380615234375 1.3531494140625 Q 1.61572265625 1.36376953125 1.597412109375 1.3623046875 Q 1.5673828125 1.36083984375 1.5538330078125 1.3092041015625 Q 1.540283203125 1.257568359375 1.540283203125 1.1689453125 L 1.540283203125 1.0986328125 Q 1.5146484375 1.133056640625 1.4915771484375 1.1605224609375 Q 1.468505859375 1.18798828125 1.450927734375 1.20703125 Q 1.430419921875 1.229736328125 1.412841796875 1.247314453125 Q 1.376220703125 1.283203125 1.3447265625 1.3070068359375 Q 1.313232421875 1.330810546875 1.286865234375 1.343994140625 Q 1.260498046875 1.357177734375 1.239990234375 1.3612060546875 Q 1.219482421875 1.365234375 1.2041015625 1.3623046875 Q 1.189453125 1.359375 1.177001953125 1.348388671875 Q 1.16455078125 1.33740234375 1.15576171875 1.31396484375 Q 1.14697265625 1.29052734375 1.1422119140625 1.2528076171875 Q 1.137451171875 1.215087890625 1.13818359375 1.15869140625 Q 1.138916015625 1.102294921875 1.1414794921875 1.0462646484375 Q 1.14404296875 0.990234375 1.1466064453125 0.939697265625 Q 1.149169921875 0.88916015625 1.1524658203125 0.8470458984375 Q 1.15576171875 0.804931640625 1.157958984375 0.7763671875 Q 1.16015625 0.73974609375 1.1502685546875 0.7174072265625 Q 1.140380859375 0.695068359375 1.115478515625 0.695068359375 Q 1.100830078125 0.695068359375 1.08251953125 0.7034912109375 Q 1.064208984375 0.7119140625 1.040771484375 0.73095703125 Q 1.058349609375 0.714111328125 1.081787109375 0.6903076171875 Q 1.105224609375 0.66650390625 1.1312255859375 0.64453125 Q 1.1572265625 0.62255859375 1.18359375 0.607177734375 Q 1.2099609375 0.591796875 1.232666015625 0.591796875 Q 1.250244140625 0.591796875 1.2593994140625 0.6009521484375 Q 1.2685546875 0.610107421875 1.2725830078125 0.623291015625 Q 1.276611328125 0.636474609375 1.2769775390625 0.6514892578125 Q 1.27734375 0.66650390625 1.27734375 0.677490234375 Q 1.27734375 0.730224609375 1.273681640625 0.7818603515625 Q 1.27001953125 0.83349609375 1.265625 0.8843994140625 Q 1.26123046875 0.935302734375 1.257568359375 0.98583984375 Q 1.25390625 1.036376953125 1.25390625 1.0869140625 Q 1.25390625 1.1220703125 1.2572021484375 1.1546630859375 Q 1.260498046875 1.187255859375 1.269287109375 1.21142578125 Q 1.278076171875 1.235595703125 1.2930908203125 1.2491455078125 Q 1.30810546875 1.2626953125 1.33154296875 1.260498046875 Q 1.3623046875 1.257568359375 1.3927001953125 1.23486328125 Q 1.423095703125 1.212158203125 1.4501953125 1.1759033203125 Q 1.477294921875 1.1396484375 1.499267578125 1.093505859375 Q 1.521240234375 1.04736328125 1.534423828125 0.998291015625 Q 1.535888671875 0.992431640625 1.5380859375 0.984375 Q 1.53955078125 0.977783203125 1.5421142578125 0.9697265625 Q 1.544677734375 0.961669921875 1.547607421875 0.951416015625 Q 1.552001953125 0.88037109375 1.5596923828125 0.8115234375 Q 1.5673828125 0.74267578125 1.57763671875 0.673828125 L 1.720458984375 0.572021484375 Q 1.693359375 0.7060546875 1.6776123046875 0.8291015625 Q 1.661865234375 0.9521484375 1.661865234375 1.074462890625 Q 1.661865234375 1.13232421875 1.6673583984375 1.168212890625 Q 1.6728515625 1.2041015625 1.6827392578125 1.22314453125 Q 1.692626953125 1.2421875 1.70654296875 1.24658203125 Q 1.720458984375 1.2509765625 1.736572265625 1.245849609375 Q 1.751220703125 1.2392578125 1.77099609375 1.220947265625 Q 1.787841796875 1.20556640625 1.8134765625 1.17626953125 Q 1.839111328125 1.14697265625 1.87353515625 1.09716796875 L 1.87353515625 1.15869140625 M 1.040771484375 0.73095703125 L 1.036376953125 0.73388671875 L 1.040771484375 0.73095703125 M 2.609619140625 1.11181640625 L 2.5927734375 1.191650390625 Q 2.55322265625 1.225341796875 2.5272216796875 1.2469482421875 Q 2.501220703125 1.2685546875 2.485107421875 1.28173828125 Q 2.466064453125 1.297119140625 2.455078125 1.305908203125 Q 2.442626953125 1.316162109375 2.4287109375 1.3267822265625 Q 2.414794921875 1.33740234375 2.3997802734375 1.345458984375 Q 2.384765625 1.353515625 2.3697509765625 1.3582763671875 Q 2.354736328125 1.363037109375 2.3408203125 1.36083984375 Q 2.297607421875 1.3564453125 2.297607421875 1.185791015625 Q 2.297607421875 1.11181640625 2.302001953125 1.012939453125 Q 2.28076171875 1.05029296875 2.2620849609375 1.0806884765625 Q 2.243408203125 1.111083984375 2.228759765625 1.13232421875 Q 2.2119140625 1.1572265625 2.197265625 1.177001953125 Q 2.164306640625 1.21875 2.1328125 1.2520751953125 Q 2.101318359375 1.285400390625 2.073486328125 1.3095703125 Q 2.045654296875 1.333740234375 2.0233154296875 1.3472900390625 Q 2.0009765625 1.36083984375 1.987060546875 1.3623046875 Q 1.97314453125 1.36376953125 1.956298828125 1.358642578125 Q 1.939453125 1.353515625 1.9237060546875 1.3355712890625 Q 1.907958984375 1.317626953125 1.8958740234375 1.283935546875 Q 1.8837890625 1.250244140625 1.87939453125 1.194580078125 Q 1.8779296875 1.18359375 1.8779296875 1.1722412109375 Q 1.8779296875 1.160888671875 1.8779296875 1.14990234375 Q 1.8779296875 1.096435546875 1.8863525390625 1.03857421875 Q 1.894775390625 0.980712890625 1.9090576171875 0.9283447265625 Q 1.92333984375 0.8759765625 1.9427490234375 0.8331298828125 Q 1.962158203125 0.790283203125 1.984130859375 0.766845703125 Q 2.000244140625 0.749267578125 2.0244140625 0.7294921875 Q 2.048583984375 0.709716796875 2.0767822265625 0.6903076171875 Q 2.10498046875 0.6708984375 2.135009765625 0.6529541015625 Q 2.1650390625 0.635009765625 2.192138671875 0.62109375 Q 2.21923828125 0.607177734375 2.2412109375 0.598388671875 Q 2.26318359375 0.589599609375 2.2763671875 0.58740234375 L 2.291015625 0.58740234375 Q 2.29833984375 0.58740234375 2.30859375 0.58740234375 Q 2.31884765625 0.58740234375 2.33203125 0.5888671875 Q 2.337158203125 0.52294921875 2.3419189453125 0.460693359375 Q 2.3466796875 0.3984375 2.3499755859375 0.3431396484375 Q 2.353271484375 0.287841796875 2.35546875 0.24169921875 Q 2.357666015625 0.195556640625 2.357666015625 0.16259765625 Q 2.357666015625 0.13330078125 2.3529052734375 0.1182861328125 Q 2.34814453125 0.103271484375 2.337890625 0.09228515625 Q 2.331298828125 0.08642578125 2.32177734375 0.0849609375 Q 2.313720703125 0.08349609375 2.30126953125 0.08642578125 Q 2.288818359375 0.08935546875 2.27197265625 0.099609375 Q 2.309326171875 0.073974609375 2.3349609375 0.056396484375 Q 2.360595703125 0.038818359375 2.37744140625 0.028564453125 Q 2.396484375 0.01611328125 2.408935546875 0.009521484375 Q 2.42431640625 0.000732421875 2.4393310546875 0.0003662109375 Q 2.454345703125 0 2.466064453125 0.0106201171875 Q 2.477783203125 0.021240234375 2.483642578125 0.0439453125 Q 2.489501953125 0.066650390625 2.486572265625 0.10400390625 Q 2.484375 0.123046875 2.4803466796875 0.1702880859375 Q 2.476318359375 0.217529296875 2.470458984375 0.2830810546875 Q 2.464599609375 0.3486328125 2.4583740234375 0.427001953125 Q 2.4521484375 0.50537109375 2.445556640625 0.58740234375 Q 2.43896484375 0.66943359375 2.4327392578125 0.7496337890625 Q 2.426513671875 0.829833984375 2.422119140625 0.8983154296875 Q 2.417724609375 0.966796875 2.414794921875 1.018798828125 Q 2.411865234375 1.07080078125 2.411865234375 1.095703125 Q 2.411865234375 1.171142578125 2.422119140625 1.212890625 Q 2.432373046875 1.254638671875 2.45947265625 1.254638671875 Q 2.478515625 1.254638671875 2.5078125 1.23193359375 Q 2.529052734375 1.215087890625 2.548095703125 1.1953125 Q 2.56494140625 1.178466796875 2.581787109375 1.1568603515625 Q 2.5986328125 1.13525390625 2.609619140625 1.11181640625 M 2.32470703125 0.692138671875 Q 2.281494140625 0.68408203125 2.25 0.6815185546875 Q 2.218505859375 0.678955078125 2.197265625 0.678955078125 Q 2.15625 0.678955078125 2.1251220703125 0.6990966796875 Q 2.093994140625 0.71923828125 2.070556640625 0.75146484375 Q 2.047119140625 0.78369140625 2.0313720703125 0.82470703125 Q 2.015625 0.86572265625 2.006103515625 0.907470703125 Q 1.99658203125 0.94921875 1.9925537109375 0.9876708984375 Q 1.988525390625 1.026123046875 1.988525390625 1.053955078125 Q 1.988525390625 1.065673828125 1.9896240234375 1.0843505859375 Q 1.99072265625 1.10302734375 1.9940185546875 1.1239013671875 Q 1.997314453125 1.144775390625 2.003173828125 1.166015625 Q 2.009033203125 1.187255859375 2.017822265625 1.2044677734375 Q 2.026611328125 1.2216796875 2.0390625 1.2322998046875 Q 2.051513671875 1.242919921875 2.068359375 1.242919921875 Q 2.08740234375 1.242919921875 2.1141357421875 1.21875 Q 2.140869140625 1.194580078125 2.183349609375 1.138916015625 Q 2.203857421875 1.1103515625 2.225830078125 1.068603515625 Q 2.244873046875 1.03271484375 2.267578125 0.977783203125 Q 2.290283203125 0.9228515625 2.31298828125 0.8466796875 L 2.32470703125 0.692138671875 M 2.843994140625 0.941162109375 Q 2.84033203125 0.98291015625 2.83740234375 1.034912109375 Q 2.83447265625 1.07958984375 2.830810546875 1.1407470703125 Q 2.8271484375 1.201904296875 2.82275390625 1.27587890625 L 2.69970703125 1.380615234375 Q 2.7158203125 1.231201171875 2.7279052734375 1.095703125 Q 2.739990234375 0.960205078125 2.739990234375 0.828369140625 Q 2.739990234375 0.76171875 2.7216796875 0.7298583984375 Q 2.703369140625 0.697998046875 2.672607421875 0.697998046875 Q 2.640380859375 0.697998046875 2.597900390625 0.73095703125 Q 2.607421875 0.72216796875 2.6209716796875 0.7086181640625 Q 2.634521484375 0.695068359375 2.6502685546875 0.6796875 Q 2.666015625 0.664306640625 2.6832275390625 0.64892578125 Q 2.700439453125 0.633544921875 2.7169189453125 0.62109375 Q 2.7333984375 0.608642578125 2.748779296875 0.6009521484375 Q 2.76416015625 0.59326171875 2.77587890625 0.59326171875 Q 2.804443359375 0.59326171875 2.81982421875 0.609375 Q 2.835205078125 0.62548828125 2.842529296875 0.64892578125 Q 2.849853515625 0.67236328125 2.851318359375 0.697998046875 Q 2.852783203125 0.7236328125 2.852783203125 0.741943359375 L 2.852783203125 0.7763671875 Q 2.8916015625 0.7119140625 2.9447021484375 0.662841796875 Q 2.997802734375 0.61376953125 3.06884765625 0.59326171875 Q 3.084228515625 0.5888671875 3.098876953125 0.5906982421875 Q 3.113525390625 0.592529296875 3.128173828125 0.5965576171875 Q 3.142822265625 0.6005859375 3.1593017578125 0.60498046875 Q 3.17578125 0.609375 3.19482421875 0.609375 Q 3.20947265625 0.609375 3.2255859375 0.605712890625 Q 3.24169921875 0.60205078125 3.26220703125 0.59326171875 Q 3.240966796875 0.614501953125 3.220458984375 0.635009765625 Q 3.199951171875 0.655517578125 3.1798095703125 0.6719970703125 Q 3.15966796875 0.6884765625 3.1402587890625 0.6998291015625 Q 3.120849609375 0.711181640625 3.103271484375 0.71337890625 Q 3.084228515625 0.715576171875 3.0670166015625 0.7108154296875 Q 3.0498046875 0.7060546875 3.0318603515625 0.7005615234375 Q 3.013916015625 0.695068359375 2.994140625 0.6925048828125 Q 2.974365234375 0.68994140625 2.95166015625 0.696533203125 Q 2.936279296875 0.70166015625 2.9212646484375 0.7247314453125 Q 2.90625 0.747802734375 2.8919677734375 0.7818603515625 Q 2.877685546875 0.81591796875 2.8656005859375 0.8572998046875 Q 2.853515625 0.898681640625 2.843994140625 0.939697265625 L 2.843994140625 0.941162109375 M 3.913330078125 1.1572265625 Q 3.90673828125 1.16748046875 3.89501953125 1.1817626953125 Q 3.88330078125 1.196044921875 3.87158203125 1.2099609375 Q 3.8583984375 1.22607421875 3.843017578125 1.242919921875 Q 3.823974609375 1.266357421875 3.802001953125 1.288330078125 Q 3.780029296875 1.310302734375 3.7584228515625 1.3275146484375 Q 3.73681640625 1.3447265625 3.71630859375 1.35498046875 Q 3.69580078125 1.365234375 3.6796875 1.364501953125 Q 3.64892578125 1.363037109375 3.63720703125 1.3267822265625 Q 3.62548828125 1.29052734375 3.62548828125 1.2216796875 Q 3.62548828125 1.18505859375 3.627685546875 1.142578125 Q 3.6298828125 1.10009765625 3.63427734375 1.04736328125 Q 3.6181640625 1.072998046875 3.603515625 1.09423828125 Q 3.5888671875 1.115478515625 3.5771484375 1.131591796875 Q 3.56396484375 1.150634765625 3.55078125 1.166015625 Q 3.511962890625 1.213623046875 3.4757080078125 1.250244140625 Q 3.439453125 1.286865234375 3.4090576171875 1.311767578125 Q 3.378662109375 1.336669921875 3.3555908203125 1.349853515625 Q 3.33251953125 1.363037109375 3.3193359375 1.364501953125 Q 3.30615234375 1.365966796875 3.2874755859375 1.355712890625 Q 3.268798828125 1.345458984375 3.251953125 1.316162109375 Q 3.235107421875 1.286865234375 3.2230224609375 1.234130859375 Q 3.2109375 1.181396484375 3.211669921875 1.09716796875 Q 3.21240234375 1.012939453125 3.2296142578125 0.9488525390625 Q 3.246826171875 0.884765625 3.2742919921875 0.8367919921875 Q 3.3017578125 0.788818359375 3.33544921875 0.7540283203125 Q 3.369140625 0.71923828125 3.402099609375 0.693603515625 Q 3.47021484375 0.6416015625 3.5328369140625 0.6104736328125 Q 3.595458984375 0.579345703125 3.655517578125 0.577880859375 Q 3.67529296875 0.5771484375 3.6943359375 0.57861328125 Q 3.711181640625 0.580078125 3.7305908203125 0.5833740234375 Q 3.75 0.586669921875 3.767578125 0.59326171875 L 3.788818359375 0.576416015625 Q 3.784423828125 0.596923828125 3.7796630859375 0.632080078125 Q 3.77490234375 0.667236328125 3.7705078125 0.711181640625 Q 3.76611328125 0.755126953125 3.76171875 0.804931640625 Q 3.75732421875 0.854736328125 3.7540283203125 0.9049072265625 Q 3.750732421875 0.955078125 3.747802734375 1.0023193359375 Q 3.744873046875 1.049560546875 3.7430419921875 1.08837890625 Q 3.7412109375 1.127197265625 3.7408447265625 1.154296875 Q 3.740478515625 1.181396484375 3.7412109375 1.191650390625 Q 3.744873046875 1.2333984375 3.7606201171875 1.248779296875 Q 3.7763671875 1.26416015625 3.80419921875 1.245849609375 Q 3.815185546875 1.237060546875 3.831298828125 1.218017578125 Q 3.84521484375 1.201904296875 3.8653564453125 1.1737060546875 Q 3.885498046875 1.1455078125 3.913330078125 1.10009765625 L 3.913330078125 1.1572265625 M 3.662841796875 0.690673828125 Q 3.59326171875 0.681884765625 3.548583984375 0.681884765625 Q 3.5009765625 0.681884765625 3.4658203125 0.697265625 Q 3.4306640625 0.712646484375 3.40576171875 0.7386474609375 Q 3.380859375 0.7646484375 3.36474609375 0.7987060546875 Q 3.3486328125 0.832763671875 3.3394775390625 0.870849609375 Q 3.330322265625 0.908935546875 3.3270263671875 0.948486328125 Q 3.32373046875 0.988037109375 3.32373046875 1.02392578125 Q 3.32373046875 1.036376953125 3.3251953125 1.0576171875 Q 3.32666015625 1.078857421875 3.3306884765625 1.10302734375 Q 3.334716796875 1.127197265625 3.3409423828125 1.152099609375 Q 3.34716796875 1.177001953125 3.3570556640625 1.1971435546875 Q 3.366943359375 1.21728515625 3.380126953125 1.2301025390625 Q 3.393310546875 1.242919921875 3.410888671875 1.242919921875 Q 3.429931640625 1.242919921875 3.4573974609375 1.2220458984375 Q 3.48486328125 1.201171875 3.523681640625 1.1513671875 Q 3.54638671875 1.12060546875 3.569091796875 1.077392578125 Q 3.588134765625 1.040771484375 3.6097412109375 0.9873046875 Q 3.63134765625 0.933837890625 3.648193359375 0.86279296875 L 3.662841796875 0.690673828125 M 5.23974609375 0.34130859375 Q 5.2265625 0.358154296875 5.20751953125 0.374267578125 Q 5.19140625 0.38818359375 5.1676025390625 0.403564453125 Q 5.143798828125 0.4189453125 5.1123046875 0.431396484375 Q 5.12255859375 0.418212890625 5.1141357421875 0.4031982421875 Q 5.105712890625 0.38818359375 5.0771484375 0.375732421875 Q 5.048583984375 0.36328125 4.9998779296875 0.355224609375 Q 4.951171875 0.34716796875 4.880859375 0.34716796875 Q 4.83984375 0.34716796875 4.7926025390625 0.3555908203125 Q 4.745361328125 0.364013671875 4.69921875 0.384521484375 Q 4.653076171875 0.405029296875 4.6102294921875 0.4390869140625 Q 4.5673828125 0.47314453125 4.534423828125 0.5240478515625 Q 4.50146484375 0.574951171875 4.4820556640625 0.6448974609375 Q 4.462646484375 0.71484375 4.462646484375 0.806396484375 Q 4.462646484375 0.89794921875 4.4849853515625 0.967529296875 Q 4.50732421875 1.037109375 4.5443115234375 1.0872802734375 Q 4.581298828125 1.137451171875 4.62890625 1.1707763671875 Q 4.676513671875 1.2041015625 4.726318359375 1.2242431640625 Q 4.776123046875 1.244384765625 4.8240966796875 1.25244140625 Q 4.8720703125 1.260498046875 4.910888671875 1.260498046875 Q 4.95556640625 1.259765625 5.00390625 1.25390625 Q 5.045654296875 1.248779296875 5.0958251953125 1.2388916015625 Q 5.14599609375 1.22900390625 5.1943359375 1.2099609375 Q 5.123291015625 1.26708984375 5.0625 1.297119140625 Q 5.001708984375 1.3271484375 4.95556640625 1.341796875 Q 4.902099609375 1.358642578125 4.857421875 1.36083984375 Q 4.7490234375 1.36083984375 4.653076171875 1.3289794921875 Q 4.55712890625 1.297119140625 4.4849853515625 1.2366943359375 Q 4.412841796875 1.17626953125 4.37109375 1.08837890625 Q 4.329345703125 1.00048828125 4.329345703125 0.888427734375 Q 4.329345703125 0.81884765625 4.342529296875 0.7591552734375 Q 4.355712890625 0.699462890625 4.3773193359375 0.649658203125 Q 4.39892578125 0.599853515625 4.426025390625 0.5599365234375 Q 4.453125 0.52001953125 4.4813232421875 0.4896240234375 Q 4.509521484375 0.459228515625 4.5362548828125 0.438720703125 Q 4.56298828125 0.418212890625 4.582763671875 0.4072265625 Q 4.601806640625 0.396240234375 4.6314697265625 0.38232421875 Q 4.6611328125 0.368408203125 4.6966552734375 0.3541259765625 Q 4.732177734375 0.33984375 4.771728515625 0.325927734375 Q 4.811279296875 0.31201171875 4.852294921875 0.301025390625 Q 4.893310546875 0.2900390625 4.9324951171875 0.283447265625 Q 4.9716796875 0.27685546875 5.0068359375 0.27685546875 Q 5.085205078125 0.27685546875 5.133544921875 0.2841796875 Q 5.181884765625 0.29150390625 5.2071533203125 0.3021240234375 Q 5.232421875 0.312744140625 5.2386474609375 0.32373046875 Q 5.244873046875 0.334716796875 5.23974609375 0.34130859375 M 5.818359375 0.78369140625 Q 5.820556640625 0.8408203125 5.814697265625 0.895751953125 Q 5.808837890625 0.95068359375 5.7974853515625 0.9986572265625 Q 5.7861328125 1.046630859375 5.7696533203125 1.0858154296875 Q 5.753173828125 1.125 5.734130859375 1.14990234375 Q 5.7216796875 1.166748046875 5.6993408203125 1.1890869140625 Q 5.677001953125 1.21142578125 5.649169921875 1.2352294921875 Q 5.621337890625 1.259033203125 5.58984375 1.282470703125 Q 5.558349609375 1.305908203125 5.527587890625 1.3238525390625 Q 5.496826171875 1.341796875 5.4686279296875 1.3531494140625 Q 5.4404296875 1.364501953125 5.419189453125 1.364501953125 Q 5.394287109375 1.364501953125 5.3759765625 1.3516845703125 Q 5.357666015625 1.3388671875 5.344482421875 1.3179931640625 Q 5.331298828125 1.297119140625 5.322509765625 1.2711181640625 Q 5.313720703125 1.2451171875 5.30859375 1.2191162109375 Q 5.303466796875 1.193115234375 5.3016357421875 1.1693115234375 Q 5.2998046875 1.1455078125 5.2998046875 1.128662109375 Q 5.2998046875 1.064208984375 5.3115234375 1.0008544921875 Q 5.3232421875 0.9375 5.3477783203125 0.88037109375 Q 5.372314453125 0.8232421875 5.40966796875 0.7745361328125 Q 5.447021484375 0.725830078125 5.4990234375 0.690673828125 Q 5.53271484375 0.66796875 5.559814453125 0.6492919921875 Q 5.5869140625 0.630615234375 5.609619140625 0.6181640625 Q 5.63232421875 0.605712890625 5.6510009765625 0.5987548828125 Q 5.669677734375 0.591796875 5.6865234375 0.591796875 Q 5.70263671875 0.591796875 5.7242431640625 0.6005859375 Q 5.745849609375 0.609375 5.7659912109375 0.6309814453125 Q 5.7861328125 0.652587890625 5.80078125 0.6895751953125 Q 5.8154296875 0.7265625 5.818359375 0.78369140625 M 5.70263671875 0.9052734375 Q 5.70263671875 0.87451171875 5.6982421875 0.8349609375 Q 5.69384765625 0.79541015625 5.6806640625 0.760986328125 Q 5.66748046875 0.7265625 5.6436767578125 0.7027587890625 Q 5.619873046875 0.678955078125 5.580322265625 0.678955078125 Q 5.564208984375 0.678955078125 5.5469970703125 0.6859130859375 Q 5.52978515625 0.69287109375 5.51513671875 0.70751953125 Q 5.48583984375 0.73681640625 5.4678955078125 0.7745361328125 Q 5.449951171875 0.812255859375 5.439697265625 0.85400390625 Q 5.429443359375 0.895751953125 5.42578125 0.938232421875 Q 5.422119140625 0.980712890625 5.422119140625 1.018798828125 Q 5.422119140625 1.03857421875 5.4228515625 1.0645751953125 Q 5.423583984375 1.090576171875 5.42724609375 1.1180419921875 Q 5.430908203125 1.1455078125 5.4378662109375 1.172607421875 Q 5.44482421875 1.19970703125 5.4569091796875 1.2205810546875 Q 5.468994140625 1.241455078125 5.4873046875 1.254638671875 Q 5.505615234375 1.267822265625 5.531982421875 1.267822265625 Q 5.567138671875 1.267822265625 5.593505859375 1.2476806640625 Q 5.619873046875 1.2275390625 5.638916015625 1.1953125 Q 5.657958984375 1.1630859375 5.6700439453125 1.122802734375 Q 5.68212890625 1.08251953125 5.689453125 1.042236328125 Q 5.69677734375 1.001953125 5.69970703125 0.9656982421875 Q 5.70263671875 0.929443359375 5.70263671875 0.9052734375 M 6.651123046875 1.11181640625 L 6.63427734375 1.191650390625 Q 6.5947265625 1.225341796875 6.5687255859375 1.2469482421875 Q 6.542724609375 1.2685546875 6.526611328125 1.28173828125 Q 6.507568359375 1.297119140625 6.49658203125 1.305908203125 Q 6.484130859375 1.316162109375 6.47021484375 1.3267822265625 Q 6.456298828125 1.33740234375 6.4412841796875 1.345458984375 Q 6.42626953125 1.353515625 6.4112548828125 1.3582763671875 Q 6.396240234375 1.363037109375 6.38232421875 1.36083984375 Q 6.339111328125 1.3564453125 6.339111328125 1.185791015625 Q 6.339111328125 1.11181640625 6.343505859375 1.012939453125 Q 6.322265625 1.05029296875 6.3035888671875 1.0806884765625 Q 6.284912109375 1.111083984375 6.270263671875 1.13232421875 Q 6.25341796875 1.1572265625 6.23876953125 1.177001953125 Q 6.205810546875 1.21875 6.17431640625 1.2520751953125 Q 6.142822265625 1.285400390625 6.114990234375 1.3095703125 Q 6.087158203125 1.333740234375 6.0648193359375 1.3472900390625 Q 6.04248046875 1.36083984375 6.028564453125 1.3623046875 Q 6.0146484375 1.36376953125 5.997802734375 1.358642578125 Q 5.98095703125 1.353515625 5.9652099609375 1.3355712890625 Q 5.949462890625 1.317626953125 5.9373779296875 1.283935546875 Q 5.92529296875 1.250244140625 5.9208984375 1.194580078125 Q 5.91943359375 1.18359375 5.91943359375 1.1722412109375 Q 5.91943359375 1.160888671875 5.91943359375 1.14990234375 Q 5.91943359375 1.096435546875 5.9278564453125 1.03857421875 Q 5.936279296875 0.980712890625 5.9505615234375 0.9283447265625 Q 5.96484375 0.8759765625 5.9842529296875 0.8331298828125 Q 6.003662109375 0.790283203125 6.025634765625 0.766845703125 Q 6.041748046875 0.749267578125 6.06591796875 0.7294921875 Q 6.090087890625 0.709716796875 6.1182861328125 0.6903076171875 Q 6.146484375 0.6708984375 6.176513671875 0.6529541015625 Q 6.20654296875 0.635009765625 6.233642578125 0.62109375 Q 6.2607421875 0.607177734375 6.28271484375 0.598388671875 Q 6.3046875 0.589599609375 6.31787109375 0.58740234375 L 6.33251953125 0.58740234375 Q 6.33984375 0.58740234375 6.35009765625 0.58740234375 Q 6.3603515625 0.58740234375 6.37353515625 0.5888671875 Q 6.378662109375 0.52294921875 6.3834228515625 0.460693359375 Q 6.38818359375 0.3984375 6.3914794921875 0.3431396484375 Q 6.394775390625 0.287841796875 6.39697265625 0.24169921875 Q 6.399169921875 0.195556640625 6.399169921875 0.16259765625 Q 6.399169921875 0.13330078125 6.3944091796875 0.1182861328125 Q 6.3896484375 0.103271484375 6.37939453125 0.09228515625 Q 6.372802734375 0.08642578125 6.36328125 0.0849609375 Q 6.355224609375 0.08349609375 6.3427734375 0.08642578125 Q 6.330322265625 0.08935546875 6.3134765625 0.099609375 Q 6.350830078125 0.073974609375 6.37646484375 0.056396484375 Q 6.402099609375 0.038818359375 6.4189453125 0.028564453125 Q 6.43798828125 0.01611328125 6.450439453125 0.009521484375 Q 6.4658203125 0.000732421875 6.4808349609375 0.0003662109375 Q 6.495849609375 0 6.507568359375 0.0106201171875 Q 6.519287109375 0.021240234375 6.525146484375 0.0439453125 Q 6.531005859375 0.066650390625 6.528076171875 0.10400390625 Q 6.52587890625 0.123046875 6.5218505859375 0.1702880859375 Q 6.517822265625 0.217529296875 6.511962890625 0.2830810546875 Q 6.506103515625 0.3486328125 6.4998779296875 0.427001953125 Q 6.49365234375 0.50537109375 6.487060546875 0.58740234375 Q 6.48046875 0.66943359375 6.4742431640625 0.7496337890625 Q 6.468017578125 0.829833984375 6.463623046875 0.8983154296875 Q 6.459228515625 0.966796875 6.456298828125 1.018798828125 Q 6.453369140625 1.07080078125 6.453369140625 1.095703125 Q 6.453369140625 1.171142578125 6.463623046875 1.212890625 Q 6.473876953125 1.254638671875 6.5009765625 1.254638671875 Q 6.52001953125 1.254638671875 6.54931640625 1.23193359375 Q 6.570556640625 1.215087890625 6.589599609375 1.1953125 Q 6.6064453125 1.178466796875 6.623291015625 1.1568603515625 Q 6.64013671875 1.13525390625 6.651123046875 1.11181640625 M 6.3662109375 0.692138671875 Q 6.322998046875 0.68408203125 6.29150390625 0.6815185546875 Q 6.260009765625 0.678955078125 6.23876953125 0.678955078125 Q 6.19775390625 0.678955078125 6.1666259765625 0.6990966796875 Q 6.135498046875 0.71923828125 6.112060546875 0.75146484375 Q 6.088623046875 0.78369140625 6.0728759765625 0.82470703125 Q 6.05712890625 0.86572265625 6.047607421875 0.907470703125 Q 6.0380859375 0.94921875 6.0340576171875 0.9876708984375 Q 6.030029296875 1.026123046875 6.030029296875 1.053955078125 Q 6.030029296875 1.065673828125 6.0311279296875 1.0843505859375 Q 6.0322265625 1.10302734375 6.0355224609375 1.1239013671875 Q 6.038818359375 1.144775390625 6.044677734375 1.166015625 Q 6.050537109375 1.187255859375 6.059326171875 1.2044677734375 Q 6.068115234375 1.2216796875 6.08056640625 1.2322998046875 Q 6.093017578125 1.242919921875 6.10986328125 1.242919921875 Q 6.12890625 1.242919921875 6.1556396484375 1.21875 Q 6.182373046875 1.194580078125 6.224853515625 1.138916015625 Q 6.245361328125 1.1103515625 6.267333984375 1.068603515625 Q 6.286376953125 1.03271484375 6.30908203125 0.977783203125 Q 6.331787109375 0.9228515625 6.3544921875 0.8466796875 L 6.3662109375 0.692138671875 M 7.083251953125 1.134521484375 Q 7.04443359375 1.178466796875 7.0118408203125 1.2117919921875 Q 6.979248046875 1.2451171875 6.954345703125 1.267822265625 Q 6.925048828125 1.294189453125 6.901611328125 1.313232421875 Q 6.837158203125 1.364501953125 6.78955078125 1.364501953125 Q 6.762451171875 1.364501953125 6.7430419921875 1.3502197265625 Q 6.7236328125 1.3359375 6.709716796875 1.313232421875 Q 6.69580078125 1.29052734375 6.68701171875 1.261962890625 Q 6.67822265625 1.2333984375 6.6734619140625 1.2044677734375 Q 6.668701171875 1.175537109375 6.6668701171875 1.149169921875 Q 6.6650390625 1.122802734375 6.6650390625 1.1044921875 Q 6.6650390625 1.055419921875 6.6763916015625 0.998291015625 Q 6.687744140625 0.941162109375 6.7093505859375 0.8843994140625 Q 6.73095703125 0.82763671875 6.762451171875 0.7752685546875 Q 6.7939453125 0.722900390625 6.8345947265625 0.6822509765625 Q 6.875244140625 0.6416015625 6.9239501953125 0.617431640625 Q 6.97265625 0.59326171875 7.029052734375 0.59326171875 Q 7.04443359375 0.59326171875 7.0546875 0.5987548828125 Q 7.06494140625 0.604248046875 7.071533203125 0.61376953125 Q 7.078125 0.623291015625 7.0806884765625 0.635009765625 Q 7.083251953125 0.646728515625 7.083251953125 0.6591796875 Q 7.083251953125 0.69140625 7.068603515625 0.7236328125 Q 7.053955078125 0.755859375 7.0294189453125 0.7869873046875 Q 7.0048828125 0.818115234375 6.973388671875 0.8477783203125 Q 6.94189453125 0.87744140625 6.9078369140625 0.9041748046875 Q 6.873779296875 0.930908203125 6.840087890625 0.954345703125 Q 6.806396484375 0.977783203125 6.778564453125 0.996826171875 L 6.778564453125 1.012939453125 Q 6.778564453125 1.03125 6.7803955078125 1.0572509765625 Q 6.7822265625 1.083251953125 6.7869873046875 1.1114501953125 Q 6.791748046875 1.1396484375 6.7998046875 1.16748046875 Q 6.807861328125 1.1953125 6.8203125 1.21728515625 Q 6.832763671875 1.2392578125 6.8499755859375 1.2528076171875 Q 6.8671875 1.266357421875 6.889892578125 1.266357421875 Q 6.900146484375 1.266357421875 6.9111328125 1.2630615234375 Q 6.922119140625 1.259765625 6.93310546875 1.251708984375 Q 6.9521484375 1.236328125 6.976318359375 1.209228515625 Q 6.996826171875 1.185791015625 7.02392578125 1.1484375 Q 7.051025390625 1.111083984375 7.083251953125 1.053955078125 L 7.083251953125 1.134521484375 M 6.947021484375 0.702392578125 Q 6.938232421875 0.692138671875 6.92431640625 0.689208984375 Q 6.910400390625 0.686279296875 6.8946533203125 0.690673828125 Q 6.87890625 0.695068359375 6.8638916015625 0.70751953125 Q 6.848876953125 0.719970703125 6.838623046875 0.740478515625 Q 6.823974609375 0.769775390625 6.806396484375 0.8243408203125 Q 6.788818359375 0.87890625 6.781494140625 0.949951171875 Q 6.804931640625 0.93603515625 6.829833984375 0.917724609375 Q 6.854736328125 0.8994140625 6.8778076171875 0.87890625 Q 6.90087890625 0.8583984375 6.9195556640625 0.8360595703125 Q 6.938232421875 0.813720703125 6.9488525390625 0.7906494140625 Q 6.95947265625 0.767578125 6.960205078125 0.7452392578125 Q 6.9609375 0.722900390625 6.947021484375 0.702392578125 M 7.55712890625 0.617431640625 Q 7.553466796875 0.626220703125 7.540283203125 0.639404296875 Q 7.529296875 0.651123046875 7.5076904296875 0.6697998046875 Q 7.486083984375 0.6884765625 7.447265625 0.71630859375 Q 7.447998046875 0.703857421875 7.4439697265625 0.6954345703125 Q 7.43994140625 0.68701171875 7.43408203125 0.6826171875 Q 7.427490234375 0.677490234375 7.41943359375 0.67529296875 Q 7.37255859375 0.66650390625 7.345458984375 0.67529296875 Q 7.3388671875 0.67822265625 7.3355712890625 0.6895751953125 Q 7.332275390625 0.700927734375 7.332275390625 0.7177734375 Q 7.332275390625 0.758056640625 7.3472900390625 0.7899169921875 Q 7.3623046875 0.82177734375 7.385009765625 0.8492431640625 Q 7.40771484375 0.876708984375 7.43408203125 0.901611328125 Q 7.46044921875 0.926513671875 7.483154296875 0.9525146484375 Q 7.505859375 0.978515625 7.5208740234375 1.007080078125 Q 7.535888671875 1.03564453125 7.535888671875 1.070068359375 Q 7.535888671875 1.099365234375 7.5238037109375 1.1304931640625 Q 7.51171875 1.16162109375 7.48681640625 1.187255859375 Q 7.465576171875 1.209228515625 7.4410400390625 1.232666015625 Q 7.41650390625 1.256103515625 7.3905029296875 1.27734375 Q 7.364501953125 1.298583984375 7.33740234375 1.316162109375 Q 7.310302734375 1.333740234375 7.283935546875 1.3447265625 Q 7.2392578125 1.36083984375 7.1982421875 1.36083984375 Q 7.17041015625 1.36083984375 7.14990234375 1.352783203125 Q 7.12939453125 1.3447265625 7.125 1.327880859375 Q 7.121337890625 1.314697265625 7.133056640625 1.2952880859375 Q 7.144775390625 1.27587890625 7.162353515625 1.2564697265625 Q 7.179931640625 1.237060546875 7.1993408203125 1.2198486328125 Q 7.21875 1.20263671875 7.229736328125 1.193115234375 Q 7.228271484375 1.228271484375 7.2462158203125 1.2432861328125 Q 7.26416015625 1.25830078125 7.3037109375 1.260498046875 Q 7.323486328125 1.261962890625 7.345458984375 1.2579345703125 Q 7.367431640625 1.25390625 7.3861083984375 1.2454833984375 Q 7.40478515625 1.237060546875 7.4168701171875 1.223876953125 Q 7.428955078125 1.210693359375 7.42822265625 1.193115234375 Q 7.4267578125 1.152099609375 7.4110107421875 1.1180419921875 Q 7.395263671875 1.083984375 7.3721923828125 1.0535888671875 Q 7.34912109375 1.023193359375 7.3231201171875 0.9942626953125 Q 7.297119140625 0.96533203125 7.2747802734375 0.935302734375 Q 7.25244140625 0.9052734375 7.2374267578125 0.87158203125 Q 7.222412109375 0.837890625 7.222412109375 0.79833984375 Q 7.222412109375 0.781494140625 7.22607421875 0.76611328125 Q 7.229736328125 0.750732421875 7.2392578125 0.73681640625 Q 7.256103515625 0.7119140625 7.285400390625 0.684814453125 Q 7.314697265625 0.65771484375 7.34765625 0.635009765625 Q 7.380615234375 0.6123046875 7.412841796875 0.5965576171875 Q 7.445068359375 0.580810546875 7.468505859375 0.577880859375 Q 7.4912109375 0.574951171875 7.5091552734375 0.5775146484375 Q 7.527099609375 0.580078125 7.538818359375 0.5859375 Q 7.550537109375 0.591796875 7.5552978515625 0.6002197265625 Q 7.56005859375 0.608642578125 7.55712890625 0.617431640625" fill="#fffdfa" fill-rule="nonzero"></path></g><g></g></g><defs><clipPath id="SvgjsClipPath2438"><path d=" M 0 -4.764333179993052 h 5.371145821058851 v 4.514333179993052 h -5.371145821058851 Z"></path></clipPath><clipPath id="SvgjsClipPath2433845958ff-6992-49b3-a7af-d81399f95285"><path d=" M 0 -4.764333179993052 L 5.371145821058851 -4.764333179993052 L 5.371145821058851 -0.25 L 0 -0.25 Z"></path></clipPath></defs></svg>